<svg width="24" height="24" viewBox="0 0 24 24" fill="none" xmlns="http://www.w3.org/2000/svg">
<rect width="24" height="24" rx="12" fill="#121212"/>
<g clip-path="url(#clip0_325_1104)">
<path d="M12 3C7.02947 3 3 7.02954 3 12C3 16.9708 7.02954 21 12 21C16.9709 21 21 16.9708 21 12C21 7.02989 16.9709 3.00049 11.9999 3.00049L11.9999 3.00007L12 3ZM16.1273 15.9807C15.966 16.245 15.62 16.3289 15.3556 16.1666C13.2425 14.8759 10.5824 14.5835 7.44966 15.2993C7.30459 15.3323 7.15235 15.3063 7.0264 15.2271C6.90046 15.1479 6.81112 15.022 6.77803 14.8769C6.76154 14.8051 6.75938 14.7307 6.77167 14.6581C6.78396 14.5854 6.81045 14.5159 6.84964 14.4535C6.88882 14.3912 6.93993 14.3371 7.00004 14.2945C7.06014 14.2519 7.12806 14.2215 7.19991 14.2052C10.6283 13.4219 13.569 13.7591 15.9414 15.209C16.2057 15.3713 16.2896 15.7163 16.1273 15.9807ZM17.2289 13.5301C17.0257 13.8602 16.5937 13.9645 16.2638 13.7613C13.8446 12.2744 10.1569 11.8437 7.29553 12.7123C6.92442 12.8243 6.5325 12.6152 6.41986 12.2448C6.30806 11.8736 6.51731 11.4824 6.88779 11.3696C10.1563 10.3778 14.2196 10.8583 16.9978 12.5655C17.3277 12.7687 17.432 13.2006 17.2289 13.5301ZM17.3234 10.9782C14.4228 9.25528 9.63708 9.0968 6.86768 9.93745C6.42295 10.0723 5.95263 9.82123 5.81791 9.3765C5.68313 8.93156 5.93393 8.46159 6.37901 8.32638C9.55805 7.36127 14.843 7.54781 18.1825 9.53034C18.5834 9.76772 18.7145 10.2844 18.477 10.6838C18.2406 11.0839 17.7225 11.2157 17.3239 10.9782H17.3234Z" fill="white"/>
</g>
<defs>
<clipPath id="clip0_325_1104">
<rect width="18" height="18" fill="white" transform="translate(3 3)"/>
</clipPath>
</defs>
</svg>
