<svg width="24" height="24" viewBox="0 0 24 24" fill="none" xmlns="http://www.w3.org/2000/svg">
<rect width="24" height="24" rx="12" fill="#121212"/>
<g clip-path="url(#clip0_325_1086)">
<path d="M20.1585 7.87167C20.0606 7.5099 19.8697 7.1801 19.6047 6.91509C19.3397 6.65007 19.0099 6.45911 18.6481 6.3612C17.3237 6 11.9934 6 11.9934 6C11.9934 6 6.6629 6.01093 5.3385 6.37213C4.97673 6.47005 4.64693 6.66102 4.38193 6.92605C4.11693 7.19107 3.92598 7.52089 3.8281 7.88267C3.4275 10.2359 3.2721 13.8216 3.8391 16.0807C3.93699 16.4424 4.12794 16.7722 4.39294 17.0372C4.65794 17.3023 4.98774 17.4932 5.3495 17.5911C6.6739 17.9523 12.0043 17.9523 12.0043 17.9523C12.0043 17.9523 17.3346 17.9523 18.659 17.5911C19.0207 17.4932 19.3505 17.3023 19.6156 17.0373C19.8806 16.7723 20.0715 16.4424 20.1694 16.0807C20.592 13.7241 20.7222 10.1406 20.1585 7.87167Z" fill="white"/>
<path d="M10.2969 14.5374L14.7187 11.9762L10.2969 9.41504V14.5374Z" fill="#121212"/>
</g>
<defs>
<clipPath id="clip0_325_1086">
<rect width="17.0667" height="12" fill="white" transform="translate(3.4668 6)"/>
</clipPath>
</defs>
</svg>
