<svg width="25" height="24" viewBox="0 0 25 24" fill="none" xmlns="http://www.w3.org/2000/svg">
<g clip-path="url(#clip0_97_316)">
<path d="M10.1333 23.8667C4.46666 22.8667 0.133331 17.9333 0.133331 12C0.133331 5.4 5.53333 0 12.1333 0C18.7333 0 24.1333 5.4 24.1333 12C24.1333 17.9333 19.8 22.8667 14.1333 23.8667L13.4667 23.3333H10.8L10.1333 23.8667Z" fill="white"/>
<path d="M16.8 15.3337L17.3333 12.0003H14.1333V9.66699C14.1333 8.73366 14.4667 8.00033 15.9333 8.00033H17.4667V4.93366C16.6 4.80033 15.6667 4.66699 14.8 4.66699C12.0667 4.66699 10.1333 6.33366 10.1333 9.33366V12.0003H7.13333V15.3337H10.1333V23.8003C10.8 23.9337 11.4667 24.0003 12.1333 24.0003C12.8 24.0003 13.4667 23.9337 14.1333 23.8003V15.3337H16.8Z" fill="#1D1841"/>
</g>
<defs>
<clipPath id="clip0_97_316">
<rect width="24" height="24" fill="white" transform="translate(0.133331)"/>
</clipPath>
</defs>
</svg>
