<svg width="25" height="24" viewBox="0 0 25 24" fill="none" xmlns="http://www.w3.org/2000/svg">
<g clip-path="url(#clip0_122_524)">
<path d="M12.1333 0C5.50593 0 0.133301 5.37272 0.133301 12C0.133301 18.6278 5.50602 24 12.1333 24C18.7611 24 24.1333 18.6278 24.1333 12C24.1333 5.37319 18.7611 0.00065625 12.1331 0.00065625L12.1332 9.375e-05L12.1333 0ZM17.6363 17.3076C17.4214 17.6601 16.9599 17.7718 16.6074 17.5554C13.79 15.8345 10.2432 15.4447 6.06618 16.399C5.87275 16.443 5.66976 16.4085 5.50184 16.3028C5.33391 16.1972 5.2148 16.0293 5.17068 15.8359C5.14869 15.7401 5.14581 15.641 5.16219 15.5441C5.17857 15.4473 5.2139 15.3546 5.26615 15.2714C5.3184 15.1882 5.38655 15.1161 5.46668 15.0593C5.54682 15.0025 5.63738 14.9621 5.73318 14.9403C10.3044 13.8959 14.2253 14.3455 17.3885 16.2787C17.741 16.495 17.8527 16.9551 17.6363 17.3076ZM19.1051 14.0401C18.8342 14.4803 18.2582 14.6193 17.8183 14.3484C14.5927 12.3658 9.67583 11.7916 5.86068 12.9497C5.36586 13.0991 4.8433 12.8203 4.69311 12.3263C4.54405 11.8315 4.82305 11.3099 5.31702 11.1595C9.67499 9.83709 15.0928 10.4777 18.7971 12.7539C19.2369 13.0249 19.376 13.6008 19.1051 14.0401ZM19.2312 10.6376C15.3636 8.34037 8.98274 8.12906 5.29021 9.24994C4.69724 9.42975 4.07014 9.09497 3.89052 8.502C3.7108 7.90875 4.04521 7.28212 4.63864 7.10184C8.87736 5.81503 15.924 6.06375 20.3766 8.70712C20.9112 9.02363 21.086 9.7125 20.7693 10.2451C20.4541 10.7785 19.7633 10.9543 19.2318 10.6376H19.2312Z" fill="#1D1841"/>
</g>
<defs>
<clipPath id="clip0_122_524">
<rect width="24" height="24" fill="white" transform="translate(0.133301)"/>
</clipPath>
</defs>
</svg>
