<svg width="25" height="24" viewBox="0 0 25 24" fill="none" xmlns="http://www.w3.org/2000/svg">
<g clip-path="url(#clip0_97_324)">
<path d="M12.1333 0C5.50596 0 0.133331 5.37272 0.133331 12C0.133331 18.6278 5.50605 24 12.1333 24C18.7612 24 24.1333 18.6278 24.1333 12C24.1333 5.37319 18.7612 0.00065625 12.1331 0.00065625L12.1332 9.375e-05L12.1333 0ZM17.6364 17.3076C17.4214 17.6601 16.96 17.7718 16.6075 17.5554C13.79 15.8345 10.2432 15.4447 6.06621 16.399C5.87278 16.443 5.66979 16.4085 5.50187 16.3028C5.33394 16.1972 5.21483 16.0293 5.17071 15.8359C5.14872 15.7401 5.14584 15.641 5.16222 15.5441C5.1786 15.4473 5.21393 15.3546 5.26618 15.2714C5.31843 15.1882 5.38658 15.1161 5.46671 15.0593C5.54685 15.0025 5.63741 14.9621 5.73321 14.9403C10.3045 13.8959 14.2254 14.3455 17.3885 16.2787C17.741 16.495 17.8527 16.9551 17.6364 17.3076ZM19.1051 14.0401C18.8342 14.4803 18.2582 14.6193 17.8183 14.3484C14.5928 12.3658 9.67586 11.7916 5.86071 12.9497C5.36589 13.0991 4.84333 12.8203 4.69314 12.3263C4.54408 11.8315 4.82308 11.3099 5.31705 11.1595C9.67502 9.83709 15.0928 10.4777 18.7971 12.7539C19.237 13.0249 19.376 13.6008 19.1051 14.0401ZM19.2312 10.6376C15.3637 8.34037 8.98277 8.12906 5.29024 9.24994C4.69727 9.42975 4.07017 9.09497 3.89055 8.502C3.71083 7.90875 4.04524 7.28212 4.63867 7.10184C8.87739 5.81503 15.924 6.06375 20.3767 8.70712C20.9112 9.02363 21.086 9.7125 20.7693 10.2451C20.4541 10.7785 19.7634 10.9543 19.2318 10.6376H19.2312Z" fill="white"/>
</g>
<defs>
<clipPath id="clip0_97_324">
<rect width="24" height="24" fill="white" transform="translate(0.133331)"/>
</clipPath>
</defs>
</svg>
